<?xml version="1.0" encoding="UTF-8" standalone="no"?>
<svg
   viewBox="0 0 96 96"
   version="1.1"
   id="svg186"
   sodipodi:docname="edit.svg"
   inkscape:version="1.2.2 (b0a8486541, 2022-12-01)"
   xmlns:inkscape="http://www.inkscape.org/namespaces/inkscape"
   xmlns:sodipodi="http://sodipodi.sourceforge.net/DTD/sodipodi-0.dtd"
   xmlns="http://www.w3.org/2000/svg"
   xmlns:svg="http://www.w3.org/2000/svg">
  <g
     id="g13037"
     transform="translate(-216.38125,-163.67923)">
    <path
       d="m 264.3815,163.67898 c -19.41416,0 -36.91682,11.69489 -44.34588,29.63091 -7.42904,17.93599 -3.32134,38.58065 10.40648,52.30848 13.72783,13.72783 34.37249,17.83553 52.30848,10.40649 17.93603,-7.42906 29.63092,-24.93172 29.63092,-44.34589 -0.0282,-26.49796 -21.50202,-47.97177 -48,-47.99999 z"
       id="path1679-3"
       sodipodi:nodetypes="cssscc"
       style="fill:#189ab4;fill-opacity:1" />
    <path
       id="path12322"
       style="fill:#0c5261;fill-opacity:1;stroke:#646464;stroke-width:0.056"
       d="m 293.10156,193.86719 -28.7207,20.9414 -28.70898,-5.0957 46.51953,46.51953 c 0.18513,-0.074 0.37402,-0.13058 0.55859,-0.20703 17.49754,-7.24744 29.02349,-24.08803 29.57812,-42.93164 z" />
    <path
       id="path4663"
       style="fill:#ffffff;fill-opacity:1;stroke-width:1.86589"
       d="m 243.57579,190.5907 c -2.86515,0 -5.72944,1.09111 -7.91548,3.27715 -4.37207,4.37207 -4.37207,11.46164 0,15.8337 l 19.78871,19.79141 c 2.44465,2.44468 5.73877,3.51992 8.93224,3.23072 3.19267,0.28838 6.48552,-0.7867 8.92952,-3.23072 l 19.79143,-19.79141 c 4.37206,-4.37206 4.37206,-11.46163 0,-15.8337 -4.37206,-4.37205 -11.46164,-4.37205 -15.8337,0 0,0 -7.02738,7.0279 -12.88998,12.88999 -5.86255,-5.86205 -12.88726,-12.88999 -12.88726,-12.88999 -2.18602,-2.18604 -5.05033,-3.27715 -7.91548,-3.27715 z" />
  </g>
  <defs
     id="defs190" />
  <sodipodi:namedview
     id="namedview188"
     pagecolor="#ffffff"
     bordercolor="#000000"
     borderopacity="0.25"
     inkscape:showpageshadow="2"
     inkscape:pageopacity="0.0"
     inkscape:pagecheckerboard="0"
     inkscape:deskcolor="#d1d1d1"
     showgrid="false"
     showguides="true"
     inkscape:zoom="0.87106558"
     inkscape:cx="-73.473228"
     inkscape:cy="317.42731"
     inkscape:window-width="1880"
     inkscape:window-height="1010"
     inkscape:window-x="20"
     inkscape:window-y="50"
     inkscape:window-maximized="1"
     inkscape:current-layer="svg186" />
  <title
     id="title178" />
</svg>
