<?xml version="1.0" standalone="no"?>
<!DOCTYPE svg PUBLIC "-//W3C//DTD SVG 20010904//EN"
 "http://www.w3.org/TR/2001/REC-SVG-20010904/DTD/svg10.dtd">
<svg version="1.0" xmlns="http://www.w3.org/2000/svg"
 width="700.000000pt" height="700.000000pt" viewBox="0 0 700.000000 700.000000"
 preserveAspectRatio="xMidYMid meet">
<metadata>
Created by potrace 1.14, written by Peter Selinger 2001-2017
</metadata>
<g transform="translate(0.000000,700.000000) scale(0.100000,-0.100000)"
fill="#000000" stroke="none">
<path d="M3488 6455 c-2 -1 -68 -5 -148 -8 -80 -4 -154 -8 -165 -10 -11 -3
-45 -8 -75 -11 -30 -4 -77 -11 -105 -16 -27 -5 -61 -11 -75 -14 -124 -20 -431
-114 -547 -167 -24 -10 -45 -19 -48 -19 -15 0 -270 -133 -355 -184 -102 -62
-234 -155 -315 -220 -27 -23 -61 -50 -75 -61 -32 -26 -286 -279 -325 -325
-240 -280 -444 -643 -560 -995 -34 -103 -88 -315 -100 -395 -4 -25 -9 -54 -11
-65 -4 -20 -20 -154 -29 -235 -6 -56 -7 -428 -1 -455 2 -11 7 -49 10 -85 6
-59 14 -120 21 -160 1 -8 6 -35 10 -60 5 -36 28 -137 49 -225 23 -94 80 -263
122 -362 8 -17 14 -34 14 -37 0 -9 108 -226 150 -301 127 -230 329 -488 537
-685 469 -446 1086 -732 1718 -796 39 -4 84 -8 100 -10 40 -4 390 -4 435 0
183 18 261 29 390 57 452 95 871 294 1240 587 103 82 339 313 411 402 24 30
46 57 49 60 16 16 125 166 164 227 142 220 250 445 327 678 36 108 85 293 94
355 4 24 8 47 10 50 5 9 25 158 40 310 5 53 6 377 1 435 -9 98 -18 178 -22
198 -2 12 -7 42 -10 67 -14 102 -65 312 -110 448 -143 435 -377 813 -709 1148
-248 250 -469 411 -773 564 -210 105 -480 203 -647 236 -51 10 -68 14 -83 18
-9 3 -35 8 -57 11 -22 3 -83 13 -135 21 -52 8 -158 17 -235 20 -77 3 -148 7
-157 9 -9 1 -18 2 -20 0z"/>
</g>
</svg>
